<svg id="Capa_1" enable-background="new 0 0 512 512" height="512" viewBox="0 0 512 512" width="512" xmlns="http://www.w3.org/2000/svg"><g><path d="m36 70v40c0 5.522 4.477 10 10 10h30.536l19.529 354.304c1.206 21.137 18.747 37.696 39.935 37.696h240c21.188 0 38.729-16.558 39.936-37.715l19.528-354.285h30.536c5.522 0 10-4.478 10-10v-40c0-5.522-4.478-10-10-10h-130v-30c0-16.542-13.458-30-30-30h-100c-16.542 0-30 13.458-30 30v30h-130c-5.523 0-10 4.478-10 10zm359.968 403.165c-.604 10.562-9.374 18.835-19.968 18.835h-240c-10.594 0-19.365-8.273-19.966-18.816l-19.468-353.184h318.868zm-199.968-443.165c0-5.514 4.486-10 10-10h100c5.514 0 10 4.486 10 10v30h-120zm-140 50h400v20h-400z"/><path d="m166 452h20c5.523 0 10-4.478 10-10v-272c0-5.522-4.477-10-10-10h-20c-5.523 0-10 4.478-10 10v272c0 5.522 4.477 10 10 10z"/><path d="m246 452h20c5.522 0 10-4.478 10-10v-272c0-5.522-4.478-10-10-10h-20c-5.523 0-10 4.478-10 10v272c0 5.522 4.477 10 10 10z"/><path d="m326 452h20c5.522 0 10-4.478 10-10v-272c0-5.522-4.478-10-10-10h-20c-5.522 0-10 4.478-10 10v272c0 5.522 4.478 10 10 10z"/></g></svg>